<!-- Generated by IcoMoon.io -->
<svg version="1.1" xmlns="http://www.w3.org/2000/svg" width="1809" height="1024" viewBox="0 0 1809 1024">
<title></title>
<g id="icomoon-ignore">
</g>
<path fill="#afb1b8" d="M855.279 101.291h-2.338c-3.584-0.222-7.168-0.307-10.752-0.393h-7.765c-6.775 0-13.687 0.171-20.548 0.512-0.232-0.018-0.503-0.028-0.777-0.028s-0.544 0.010-0.812 0.030l0.036-0.002c-65.896 3.84-127.071 20.323-182.372 47.046l2.882-1.256-7.373 3.55v377.89l17.271-5.871c15.155-5.205 31.3-9.899 48.009-14.234 41.279-11.042 88.793-17.695 137.757-18.343l0.398-0.004v49.647c-6.178 0.034-12.169 0.205-18.176 0.512h-1.434c-38.795 2.179-75.143 8.002-110.136 17.172l3.845-0.856c-48.096 12.229-90.243 29.134-129.415 50.765l2.781-1.408v-484.642c38.249-22.737 82.492-41.265 129.348-53.269l3.516-0.764c37.525-10.091 80.638-15.971 125.096-16.145h7.392c8.721 0.222 17.237 0.614 25.225 1.212 21.043 1.485 41.916 4.813 62.379 9.95v48.862c-17.411-4.267-38.058-7.503-59.177-9.040l-1.257-0.073-1.246-0.102c-4.215-0.358-8.431-0.717-12.356-0.717zM941.278 151.228c10.837 0.836 22.067 1.229 33.417 1.229 46.849-0.183 92.179-6.335 135.379-17.736l-3.744 0.84c48.080-12.271 90.199-29.179 129.362-50.788l-2.796 1.414v475.989c-38.254 22.718-82.501 41.244-129.355 53.266l-3.526 0.767c-37.527 10.056-80.646 15.922-125.104 16.111h-0.114c-0.914 0.008-1.994 0.012-3.075 0.012-32.632 0-64.308-4.088-94.547-11.778l2.645 0.57v-479.095c7.339 1.707 14.899 3.26 22.579 4.557 12.612 2.133 25.907 3.686 38.861 4.642zM1183.522 154.931l-17.271 5.803c-15.872 5.342-31.915 10.121-48.009 14.37-43.004 11.51-92.409 18.211-143.349 18.398h-0.113c-11.264 0-21.623-0.307-31.642-0.956l-13.773-0.905v388.727l11.827 1.024c10.957 0.973 22.272 1.451 33.673 1.451 40.224-0.177 79.125-5.503 116.184-15.35l-3.203 0.724c33.872-8.604 63.259-19.466 91.123-32.978l-2.821 1.234 7.373-3.55v-377.993z"></path>
<path fill="#afb1b8" d="M609.911 771.618c-4.635-4.8-11.127-7.781-18.316-7.781-0.317 0-0.633 0.006-0.947 0.017l0.045-0.001c-0.115-0.002-0.251-0.003-0.387-0.003-3.859 0-7.539 0.766-10.896 2.154l0.189-0.069c-6.56 2.632-11.643 7.771-14.141 14.2l-0.058 0.17c-1.365 3.413-2.031 7.049-1.98 10.718v64.751c-0.171 4.557 0.717 9.097 2.543 13.278 1.536 3.328 3.738 6.281 6.485 8.687 2.577 2.167 5.615 3.755 8.875 4.608 3.157 0.87 6.417 1.331 9.677 1.331 3.601 0.034 7.168-0.734 10.445-2.253 9.718-4.319 16.374-13.882 16.384-25.001v-7.237h-16.947v5.769c0.003 0.117 0.005 0.255 0.005 0.393 0 1.933-0.365 3.781-1.030 5.478l0.035-0.102c-0.578 1.43-1.412 2.648-2.454 3.649l-0.003 0.003c-1.94 1.508-4.399 2.432-7.073 2.475h-0.010c-0.297 0.037-0.642 0.057-0.991 0.057-2.845 0-5.366-1.384-6.928-3.515l-0.017-0.024c-1.423-2.282-2.267-5.053-2.267-8.021 0-0.228 0.005-0.455 0.015-0.681l-0.001 0.032v-60.382c-0.102-3.345 0.614-6.656 2.082-9.677 1.564-2.401 4.236-3.967 7.274-3.967 0.354 0 0.702 0.021 1.045 0.062l-0.041-0.004c0.096-0.004 0.208-0.006 0.32-0.006 2.959 0 5.584 1.429 7.223 3.634l0.017 0.024c1.75 2.283 2.804 5.18 2.804 8.323 0 0.128-0.002 0.255-0.005 0.383v-0.019 5.598h16.759v-6.605c0.001-0.085 0.001-0.186 0.001-0.288 0-3.973-0.759-7.769-2.139-11.251l0.072 0.207c-1.327-3.539-3.251-6.573-5.677-9.125l0.011 0.011zM710.468 770.901c-5.16-4.391-11.886-7.080-19.24-7.134h-0.012c-3.447 0-6.878 0.631-10.103 1.826-6.983 2.507-12.497 7.643-15.446 14.185l-0.068 0.168c-1.707 3.942-2.56 8.226-2.475 12.544v62.089c-0.119 4.369 0.734 8.704 2.475 12.715 1.536 3.345 3.755 6.315 6.554 8.687 2.594 2.389 5.632 4.267 8.943 5.461 3.243 1.195 6.656 1.809 10.103 1.826 7.395-0.018 14.143-2.777 19.283-7.315l-0.032 0.027c2.697-2.423 4.864-5.376 6.383-8.687 1.741-3.994 2.577-8.346 2.475-12.715v-62.106c0.003-0.161 0.005-0.351 0.005-0.541 0-4.333-0.912-8.454-2.556-12.179l0.076 0.193c-1.578-3.546-3.73-6.561-6.371-9.068l-0.012-0.012zM702.566 854.596c0.026 0.286 0.041 0.619 0.041 0.956 0 3.153-1.303 6.001-3.4 8.036l-0.003 0.003c-2.14 1.803-4.927 2.898-7.97 2.898s-5.83-1.096-7.989-2.914l0.019 0.015c-2.101-2.022-3.407-4.858-3.407-7.999 0-0.35 0.016-0.697 0.048-1.039l-0.003 0.044v-62.106c-0.026-0.288-0.041-0.622-0.041-0.96 0-3.146 1.304-5.988 3.4-8.014l0.003-0.003c2.139-1.806 4.926-2.904 7.97-2.904s5.832 1.098 7.989 2.919l-0.018-0.015c2.1 2.027 3.404 4.866 3.404 8.011 0 0.34-0.015 0.677-0.045 1.009l0.003-0.043v62.123zM842.53 882.347v-117.589h-16.265l-21.385 62.242h-0.29l-21.555-62.225h-16.094v117.555h16.794v-71.509h0.307l16.435 50.551h8.38l16.572-50.551h0.307v71.509h16.794zM937.95 773.018c-2.577-2.901-5.854-5.12-9.489-6.434-3.446-1.161-7.415-1.832-11.541-1.832-0.227 0-0.453 0.002-0.679 0.006h-24.917v117.589h16.759v-45.926h8.619c5.239 0.239 10.428-0.87 15.121-3.209 3.843-2.164 6.957-5.213 9.137-8.882l0.062-0.112c1.929-3.123 3.243-6.605 3.84-10.24 0.58-3.7 0.911-7.967 0.911-12.311 0-0.37-0.002-0.739-0.007-1.108l0.001 0.056c0.171-5.632-0.393-11.298-1.638-16.794-1.186-4.232-3.327-7.87-6.184-10.809l0.006 0.006zM929.314 808.858c-0.076 2.246-0.642 4.343-1.592 6.211l0.039-0.084c-0.971 1.805-2.457 3.225-4.261 4.089l-0.057 0.024c-2.067 0.952-4.486 1.507-7.033 1.507-0.305 0-0.609-0.008-0.911-0.024l0.042 0.002h-7.646v-39.97h8.636c0.241-0.013 0.522-0.020 0.806-0.020 2.451 0 4.774 0.549 6.853 1.529l-0.098-0.042c1.729 1.007 3.083 2.493 3.901 4.276l0.024 0.059c0.922 2.065 1.417 4.301 1.468 6.554v7.817c0 2.731 0.171 5.564 0 8.073h-0.171zM1017.31 764.757h-13.739l-25.907 117.589h16.759l4.915-25.259h22.852l4.915 25.259h16.742l-26.539-117.589zM1001.847 841.062l8.243-42.615h0.307l8.192 42.615h-16.742zM1125.547 835.584h-0.307l-25.293-70.827h-16.111v117.589h16.742v-70.707h0.341l25.6 70.69h15.77v-117.555h-16.742v70.827zM1227.913 764.757l-13.483 46.763h-0.341l-13.483-46.763h-17.715l23.006 67.891v49.681h16.759v-49.681l23.006-67.874h-17.749zM563.2 915.541h8.073v22.647h5.478v-22.665h8.021v-4.642h-21.572v4.659zM631.074 910.882l-10.581 27.307h5.82l2.253-6.212h10.889l2.321 6.212h5.973l-10.854-27.307h-5.82zM630.221 927.386l3.703-10.121 3.703 10.121h-7.424zM698.163 928.119h6.315v3.516c-1.76 1.422-4.020 2.288-6.482 2.304h-0.003c-0.117 0.007-0.254 0.011-0.391 0.011-2.188 0-4.138-1.019-5.401-2.608l-0.011-0.014c-1.271-1.817-2.030-4.072-2.030-6.505 0-0.215 0.006-0.429 0.018-0.642l-0.001 0.030c0-6.076 2.628-9.114 7.851-9.114 0.178-0.019 0.383-0.031 0.592-0.031 2.69 0 4.949 1.847 5.578 4.343l0.008 0.040 5.393-1.058c-1.161-5.325-5.001-8.021-11.571-8.021-0.108-0.003-0.235-0.005-0.363-0.005-3.534 0-6.757 1.336-9.189 3.531l0.012-0.011c-2.448 2.415-3.964 5.77-3.964 9.478 0 0.358 0.014 0.713 0.042 1.064l-0.003-0.046c-0.009 0.19-0.014 0.413-0.014 0.638 0 3.67 1.328 7.029 3.53 9.624l-0.018-0.021c2.411 2.491 5.785 4.037 9.52 4.037 0.295 0 0.588-0.010 0.879-0.029l-0.039 0.002c0.132 0.004 0.288 0.006 0.444 0.006 4.301 0 8.215-1.657 11.138-4.368l-0.011 0.010v-10.752h-11.827v4.608zM766.686 910.882h-5.53v27.307h19.115v-4.642h-13.585v-22.665zM824.627 910.882h-5.53v27.307h5.53v-27.307zM881.254 929.109l-11.179-18.227h-5.342v27.307h5.12v-17.835l10.974 17.835h5.495v-27.307h-5.069v18.244zM932.471 926.157h13.602v-4.642h-13.602v-5.973h14.626v-4.659h-20.156v27.307h20.719v-4.642h-15.189v-7.39zM1056.631 921.651h-10.752v-10.752h-5.461v27.29h5.461v-11.947h10.752v11.947h5.495v-27.307h-5.495v10.769zM1108.139 926.157h13.653v-4.642h-13.653v-5.973h14.677v-4.659h-20.139v27.307h20.685v-4.642h-15.189v-7.39zM1177.993 926.174c4.762-0.751 7.168-3.26 7.168-7.595 0.029-0.23 0.045-0.496 0.045-0.766 0-2.179-1.066-4.109-2.705-5.297l-0.019-0.013c-2.016-1.035-4.399-1.641-6.924-1.641-0.374 0-0.745 0.013-1.113 0.040l0.049-0.003h-11.571v27.29h5.495v-11.418h1.075c0.132-0.008 0.285-0.013 0.44-0.013 1.076 0 2.098 0.231 3.019 0.646l-0.046-0.019c0.802 0.495 1.468 1.178 1.946 1.997l5.956 8.67h6.554l-3.328-5.325c-1.503-2.665-3.538-4.863-5.974-6.511l-0.067-0.043zM1172.463 922.385h-4.045v-6.844h4.318c0.346-0.030 0.748-0.047 1.154-0.047 1.576 0 3.093 0.254 4.511 0.724l-0.101-0.029c0.733 0.659 1.192 1.61 1.192 2.669 0 1.175-0.565 2.217-1.439 2.871l-0.009 0.007c-1.364 0.433-2.933 0.682-4.56 0.682-0.359 0-0.716-0.012-1.069-0.036l0.048 0.003zM1230.677 926.157h13.585v-4.642h-13.585v-5.973h14.677v-4.659h-20.207v27.307h20.719v-4.642h-15.189v-7.39z"></path>
</svg>
