<!-- Generated by IcoMoon.io -->
<svg version="1.1" xmlns="http://www.w3.org/2000/svg" width="1809" height="1024" viewBox="0 0 1809 1024">
<title></title>
<g id="icomoon-ignore">
</g>
<path fill="#afb1b8" d="M648.533 119.467l119.603 113.22-222.003-0.137v549.342h580.267v-210.039l119.467 113.101v-565.487h-597.333zM1121.143 558.558l-339.115-321.024h339.115v321.024zM1015.859 701.525h-377.907v-369.425h26.709v344.422h351.198v25.003zM727.211 855.040l-13.961 28.757-13.961-28.757h-11.708l20.378 38.332v22.34h10.581v-22.34l20.326-38.332h-11.657zM744.755 915.712l4.915-14.131h23.501l4.949 14.131h11.008l-22.955-60.672h-9.472l-22.903 60.672h10.957zM761.412 867.925l8.789 25.156h-17.579l8.789-25.173zM816.998 891.631c-1.433 2.138-2.287 4.77-2.287 7.601 0 0.034 0 0.068 0 0.101v-0.005c0 5.12 1.792 9.267 5.376 12.459 3.601 3.174 8.414 4.762 14.404 4.762 6.007 0 11.179-1.638 15.514-4.881l3.413 4.045h11.742l-8.909-10.547c3.499-4.779 5.239-10.906 5.239-18.381h-8.789c0 4.096-0.853 7.799-2.543 11.127l-11.708-13.824 4.13-3.004c2.511-1.702 4.607-3.809 6.246-6.25l0.052-0.082c1.201-1.968 1.912-4.35 1.912-6.897 0-0.035 0-0.070 0-0.105v0.005c0.001-0.070 0.002-0.153 0.002-0.236 0-3.735-1.639-7.088-4.238-9.377l-0.014-0.012c-2.697-2.442-6.292-3.937-10.236-3.937-0.211 0-0.422 0.004-0.631 0.013l0.030-0.001c-4.881 0-8.772 1.399-11.657 4.164-2.901 2.765-4.335 6.502-4.335 11.264 0 1.946 0.461 3.942 1.365 6.042 0.956 2.082 2.611 4.608 4.949 7.578-4.489 3.226-7.509 6.007-9.028 8.363zM844.373 905.045c-2.596 2.104-5.933 3.386-9.568 3.413h-0.006c-0.146 0.008-0.317 0.012-0.489 0.012-2.613 0-4.991-1.004-6.771-2.646l0.007 0.006c-1.679-1.651-2.72-3.948-2.72-6.487 0-0.119 0.002-0.238 0.007-0.356l-0.001 0.017c0-3.243 1.673-6.144 5.001-8.67l1.297-0.922 13.244 15.633zM833.502 878.165c-2.867-3.533-4.301-6.451-4.301-8.789 0-2.031 0.597-3.703 1.758-5.035 1.094-1.241 2.687-2.019 4.462-2.019 0.087 0 0.174 0.002 0.261 0.006h-0.012c0.065-0.002 0.141-0.004 0.218-0.004 1.673 0 3.195 0.651 4.325 1.713l-0.003-0.003c1.195 1.126 1.792 2.475 1.792 4.045 0.002 0.066 0.003 0.144 0.003 0.223 0 2.257-0.996 4.281-2.572 5.658l-0.009 0.008-1.297 1.024-4.625 3.174zM932.25 911.121c4.164-3.635 6.554-8.704 7.168-15.155h-10.496c-0.563 4.335-1.877 7.424-3.959 9.284-2.082 1.877-5.205 2.799-9.335 2.799-4.523 0-7.97-1.724-10.325-5.171-2.338-3.447-3.516-8.448-3.516-15.019v-5.359c0.068-6.485 1.314-11.366 3.755-14.711 2.475-3.362 6.007-5.035 10.581-5.035 3.942 0 6.929 0.973 8.96 2.901 2.048 1.929 3.328 5.069 3.84 9.421h10.496c-0.683-6.639-3.038-11.776-7.117-15.411-4.096-3.635-9.472-5.461-16.179-5.461-4.966 0-9.353 1.195-13.158 3.55-3.814 2.439-6.802 5.867-8.645 9.925l-0.059 0.144c-1.934 4.244-3.062 9.206-3.062 14.43 0 0.249 0.003 0.497 0.008 0.745l-0.001-0.037v5.666c0.085 5.581 1.126 10.479 3.123 14.711 2.014 4.215 4.847 7.475 8.499 9.779 3.703 2.287 7.97 3.413 12.8 3.413 6.912 0 12.459-1.792 16.623-5.41zM994.202 902.622c2.048-4.506 3.089-9.728 3.089-15.667v-3.362c0.004-0.193 0.006-0.42 0.006-0.648 0-5.395-1.165-10.518-3.257-15.13l0.094 0.23c-1.928-4.283-4.979-7.773-8.78-10.184l-0.094-0.056c-3.823-2.389-8.192-3.584-13.141-3.584s-9.318 1.195-13.158 3.618c-3.806 2.389-6.758 5.837-8.875 10.377-1.978 4.391-3.131 9.52-3.131 14.917 0 0.264 0.003 0.527 0.008 0.789l-0.001-0.039v3.413c0.034 5.803 1.075 10.923 3.157 15.36 2.116 4.454 5.086 7.885 8.926 10.308 3.857 2.389 8.243 3.584 13.158 3.584 4.983 0 9.37-1.195 13.175-3.584 3.823-2.423 6.775-5.871 8.823-10.342zM982.921 868.318c2.56 3.584 3.823 8.755 3.823 15.479v3.157c0 6.827-1.263 12.032-3.789 15.582-2.492 3.567-6.076 5.342-10.752 5.342-0.13 0.005-0.282 0.008-0.435 0.008-4.293 0-8.084-2.148-10.358-5.427l-0.027-0.042c-2.594-3.635-3.874-8.789-3.874-15.462v-3.499c0.051-6.519 1.365-11.571 3.908-15.121 2.282-3.271 6.026-5.384 10.264-5.384 0.154 0 0.307 0.003 0.459 0.008l-0.022-0.001c4.676 0 8.277 1.792 10.803 5.376z"></path>
</svg>
